<?xml version="1.0" encoding="UTF-8" standalone="no"?><!DOCTYPE svg PUBLIC "-//W3C//DTD SVG 1.1//EN" "http://www.w3.org/Graphics/SVG/1.1/DTD/svg11.dtd"><svg width="100%" height="100%" viewBox="0 0 836 356" version="1.1" xmlns="http://www.w3.org/2000/svg" xmlns:xlink="http://www.w3.org/1999/xlink" xml:space="preserve" xmlns:serif="http://www.serif.com/" style="fill-rule:evenodd;clip-rule:evenodd;stroke-linejoin:round;stroke-miterlimit:1.41421;"><g><g><g><circle cx="170.184" cy="102.13" r="14.964" style="fill:#422c83;"/><path d="M212.314,112.76c0.937,-3.601 1.466,-7.299 1.58,-11.021c-0.138,-3.853 -0.668,-7.674 -1.58,-11.421l0,-39.376l-4.725,0.79c-14.963,1.572 -30.318,2.753 -45.282,3.543c-20.372,-8.659 -43.408,-8.659 -63.781,0c-15.363,-0.79 -30.319,-1.971 -45.282,-3.543l-4.725,-0.391l0,39.368c-1.132,3.707 -1.662,7.56 -1.58,11.421c-0.057,3.739 0.472,7.461 1.58,11.029c-7.087,3.934 -12.601,12.601 -12.601,24.804c-0.79,27.565 18.108,54.34 18.108,54.34c1.955,-5.881 4.741,-11.445 8.268,-16.536c6.915,10.655 16.218,19.558 27.174,25.985c-1.442,-0.008 -2.786,0.741 -3.543,1.971c-0.758,-1.23 -2.102,-1.979 -3.544,-1.971l-1.181,0c-2.37,0.025 -4.309,1.963 -4.334,4.334l0,14.173c-0.008,0.09 -0.008,0.18 -0.008,0.277c0,2.395 1.939,4.391 4.342,4.448l1.572,0c1.442,0.008 2.786,-0.741 3.544,-1.971c0.757,1.23 2.101,1.979 3.543,1.971l1.181,0c1.442,0.008 2.786,-0.741 3.543,-1.971c0.758,1.23 2.102,1.979 3.544,1.971l0.399,0c2.362,-0.025 4.309,-1.963 4.325,-4.334l0,-12.601c17.701,6.297 37.039,6.297 54.732,0l0,12.21c-0.008,2.452 1.89,4.521 4.333,4.725l1.181,0c1.442,0.008 2.786,-0.741 3.544,-1.971c0.757,1.23 2.101,1.979 3.543,1.971l1.181,0c1.442,0.008 2.786,-0.741 3.544,-1.971c0.757,1.23 2.101,1.979 3.543,1.971l1.181,0c2.403,-0.057 4.342,-2.053 4.342,-4.448c0,-0.097 0,-0.187 -0.008,-0.277l0,-14.572c0.008,-2.444 -1.89,-4.521 -4.334,-4.725l-1.181,0c-1.442,-0.008 -2.786,0.741 -3.543,1.971c-0.758,-1.23 -2.102,-1.979 -3.544,-1.971c10.956,-6.427 20.259,-15.33 27.175,-25.985c3.527,5.091 6.312,10.655 8.267,16.536c1.955,5.881 18.899,-26.775 18.108,-54.34c0.563,-9.808 -4.276,-19.184 -12.601,-24.413Zm-121.665,24.812c-19.444,0 -35.442,-15.998 -35.442,-35.442c0,-19.436 15.998,-35.434 35.442,-35.434c19.436,0 35.434,15.998 35.434,35.434c0,19.444 -15.998,35.442 -35.434,35.442Zm39.768,17.326l-16.145,-16.145c6.972,-4.578 12.552,-10.981 16.145,-18.507c3.486,7.592 9.09,14.027 16.144,18.507l-16.144,16.145Zm39.767,-17.326c-19.436,0 -35.434,-15.998 -35.434,-35.442c0,-19.436 15.998,-35.434 35.434,-35.434c19.444,0 35.442,15.998 35.442,35.434c0,19.444 -15.998,35.442 -35.442,35.442Z" style="fill:#422c83;fill-rule:nonzero;"/><circle cx="90.649" cy="102.13" r="14.964" style="fill:#422c83;"/><path d="M130.417,0.544c-71.496,0 -130.332,58.837 -130.332,130.332c0,71.495 58.836,130.332 130.332,130.332c71.495,0 130.332,-58.837 130.332,-130.332c0,-0.024 0,-0.049 0,-0.081c0,-71.455 -58.796,-130.251 -130.251,-130.251c-0.033,0 -0.057,0 -0.081,0Zm0,250.824c-66.136,-0.114 -120.492,-54.56 -120.492,-120.687c0,-66.209 54.487,-120.688 120.687,-120.688c66.209,0 120.688,54.479 120.688,120.688c0,0.065 0,0.13 0,0.195c-0.041,66.111 -54.455,120.492 -120.566,120.492c-0.106,0 -0.211,0 -0.317,0Z" style="fill:#422c83;fill-rule:nonzero;"/></g><g><g><path d="M96.03,316.961l0,19.51c0,7.334 -4.557,12.746 -12.887,12.746c-8.26,0 -12.959,-5.412 -12.959,-12.746l0,-19.51l-5.981,0l0,19.51c0,10.965 7.619,18.584 18.94,18.584c11.249,0 18.939,-7.619 18.939,-18.584l0,-19.51l-6.052,0Z" style="fill:#422c83;fill-rule:nonzero;"/><path d="M27.611,341.284l0,-10.081l23.78,0l0,10.081l5.982,0l0,-36.497l-5.982,0l0,20.578l-23.78,0l0,-20.578l-6.051,0l0,36.497l6.051,0Z" style="fill:#422c83;fill-rule:nonzero;"/><path d="M114.396,341.284l0,-21.117c0,-5.839 4.557,-10.822 10.609,-10.822c6.123,0 10.608,4.983 10.608,10.822l0,21.117l6.052,0l0,-21.117c0,-5.839 4.487,-10.822 10.609,-10.822c6.053,0 10.609,4.983 10.609,10.822l0,21.117l5.981,0l0,-21.117c0,-9.185 -7.192,-16.59 -16.59,-16.59c-5.98,0 -10.893,2.991 -13.67,7.476c-2.705,-4.485 -7.619,-7.476 -13.599,-7.476c-9.399,0 -16.661,7.405 -16.661,16.59l0,21.117l6.052,0Z" style="fill:#422c83;fill-rule:nonzero;"/><path d="M213.933,303.521c-13.994,0 -25.34,11.344 -25.34,25.339c0,13.995 11.346,25.34 25.34,25.34c13.995,0 25.341,-11.345 25.341,-25.34c0,-13.995 -11.346,-25.339 -25.341,-25.339m0,5.537c10.92,0 19.803,8.883 19.803,19.802c0,10.919 -8.883,19.803 -19.803,19.803c-10.919,0 -19.802,-8.884 -19.802,-19.803c0,-10.919 8.883,-19.802 19.802,-19.802" style="fill:#422c83;fill-rule:nonzero;"/><rect x="176.26" y="316.961" width="6.052" height="24.323" style="fill:#422c83;fill-rule:nonzero;"/></g></g></g><g><path d="M647.401,337.72c-0.542,0 -1.126,-0.137 -1.532,-0.686l-17.385,-22.862l0,23.32l-3.964,0l0,-28.716c0,-1.143 0.946,-2.057 2.028,-2.057c0.63,0 1.17,0.182 1.575,0.731l17.34,22.816l0,-23.227l3.963,0l0,28.668c0,1.189 -0.946,2.012 -2.026,2.012m32.79,0.275c-3.962,0 -8.107,-0.824 -11.98,-2.286l0.946,-3.293c3.558,1.144 7.431,1.967 11.034,1.967c5,0 7.612,-1.784 7.612,-4.298c0,-2.286 -2.028,-3.43 -9.008,-6.722c-6.981,-3.292 -9.727,-5.394 -9.727,-9.51c0,-5.166 3.962,-7.27 11.438,-7.27c3.108,0 7.882,0.64 10.63,1.464l-0.63,3.383c-3.02,-0.731 -6.801,-1.234 -9.91,-1.234c-5.268,0 -7.43,1.005 -7.43,3.52c0,2.469 1.575,3.52 8.962,6.95c7.792,3.612 9.773,5.441 9.773,9.19c0,5.442 -5.135,8.139 -11.71,8.139m30.492,-30.954l4.098,0l0,30.45l-4.098,0l0,-30.45Zm38.96,16.643l-10.18,0l0,10.334l10.18,0c3.467,0 5.584,-2.195 5.584,-5.26c0,-2.88 -2.206,-5.074 -5.584,-5.074m-1.983,-13.169l-8.197,0l0,9.74l8.197,0c3.288,0 5.675,-2.104 5.675,-5.03c0,-2.88 -2.072,-4.71 -5.675,-4.71m2.028,26.977l-12.25,0c-0.01,0 -0.019,0 -0.029,0c-1.121,0 -2.044,-0.923 -2.044,-2.044c0,-0.004 0,-0.009 0,-0.013l0,-26.338c0,-1.098 0.901,-2.057 2.073,-2.057l10.133,0c6.215,0 9.908,3.063 9.908,7.864c0,2.606 -1.532,5.03 -3.874,6.447c3.47,1.052 5.81,3.932 5.81,7.407c0,4.846 -4.008,8.733 -9.727,8.733m29.409,0.001c-1.124,0 -2.025,-0.96 -2.025,-2.057l0,-28.394l4.097,0l0,26.748l16.304,0l0,3.703l-18.376,0Zm46.314,0.503c-8.377,0 -13.421,-3.109 -13.421,-9.373c0,-2.972 1.667,-5.807 4.91,-7.133c-2.613,-1.646 -3.964,-3.978 -3.964,-6.538c0,-5.67 4.37,-8.368 12.566,-8.368c2.748,0 6.62,0.32 9.864,1.052l-0.451,3.383c-3.422,-0.549 -6.621,-0.868 -9.729,-0.868c-5.314,0 -8.152,1.463 -8.152,4.984c0,2.79 2.613,4.984 6.081,4.984l7.025,0c0.991,0 1.757,0.777 1.757,1.737c0,1.006 -0.766,1.783 -1.757,1.783l-7.565,0c-3.964,0 -6.485,1.965 -6.485,4.984c0,4.435 4.098,5.76 9.232,5.76c2.793,0 6.575,-0.364 9.637,-1.096l0.587,3.337c-2.928,0.824 -6.757,1.372 -10.135,1.372m-231.388,-25.243l7.178,17.984l-10.84,-8.67l3.662,-9.314Zm12.751,22.127l-11.04,-26.974c-0.314,-0.778 -0.945,-1.19 -1.711,-1.19c-0.776,-0.015 -1.482,0.464 -1.756,1.19l-12.118,29.587l4.144,0l4.798,-12.198l14.314,11.74c0.576,0.473 0.991,0.686 1.532,0.686c1.08,0 2.027,-0.822 2.027,-2.01c0,-0.194 -0.068,-0.5 -0.19,-0.83l0,-0.001Z" style="fill:#1a1918;fill-rule:nonzero;"/><g><path d="M835.413,130.877c0,70.455 -57.11,127.565 -127.567,127.565c-70.45,0 -127.566,-57.11 -127.566,-127.565c0,-70.45 57.116,-127.566 127.566,-127.566c70.456,0 127.567,57.116 127.567,127.566" style="fill:#be0b16;fill-rule:nonzero;"/><path d="M709.994,81.238l33.011,81.476l-49.863,-39.278l16.852,-42.197l0,-0.001Zm58.644,100.245l-50.778,-122.202c-1.45,-3.524 -4.348,-5.39 -7.866,-5.39c-3.525,0 -6.634,1.866 -8.084,5.39l-55.732,134.04l19.065,0l22.062,-55.265l65.84,53.19c2.647,2.141 4.558,3.11 7.041,3.11c4.974,0 9.322,-3.73 9.322,-9.111c0,-0.876 -0.31,-2.267 -0.87,-3.762Z" style="fill:#fff;fill-rule:nonzero;"/></g></g><text x="336.215px" y="221.253px" style="font-family:'MaterialIcons-Regular', 'Material Icons';font-size:168.467px;fill:#422c83;"></text></g></svg>